REM DIRINDEX 1\4,1\2\5,1\2\6,1\3\7,1\3\8
REM DIRNAME folder01,folder02,folder03,folder04,folder05,folder06,folder07,folder08
TITLE ""
FILE "061_Day31_Check2_Phrases.mp3" MP3
  TRACK 01 AUDIO
    TITLE "0:"
    INDEX 01 00:00:00
  TRACK 02 AUDIO
    TITLE "4:cjc124_1983"
    INDEX 01 00:00:33
  TRACK 03 AUDIO
    TITLE "0:"
    INDEX 01 00:01:58
  TRACK 04 AUDIO
    TITLE "5:cjc124_1984"
    INDEX 01 00:02:14
  TRACK 05 AUDIO
    TITLE "0:"
    INDEX 01 00:03:70
  TRACK 06 AUDIO
    TITLE "6:cjc124_1985"
    INDEX 01 00:04:17
  TRACK 07 AUDIO
    TITLE "0:"
    INDEX 01 00:05:57
  TRACK 08 AUDIO
    TITLE "5:cjc124_1986"
    INDEX 01 00:06:22
  TRACK 09 AUDIO
    TITLE "0:"
    INDEX 01 00:08:28
  TRACK 10 AUDIO
    TITLE "6:cjc124_1987"
    INDEX 01 00:08:46
  TRACK 11 AUDIO
    TITLE "0:"
    INDEX 01 00:10:39
  TRACK 12 AUDIO
    TITLE "5:cjc124_1988"
    INDEX 01 00:11:05
  TRACK 13 AUDIO
    TITLE "0:"
    INDEX 01 00:12:69
  TRACK 14 AUDIO
    TITLE "6:cjc124_1989"
    INDEX 01 00:13:16
  TRACK 15 AUDIO
    TITLE "0:"
    INDEX 01 00:15:01
  TRACK 16 AUDIO
    TITLE "5:cjc124_1990"
    INDEX 01 00:15:40
  TRACK 17 AUDIO
    TITLE "0:"
    INDEX 01 00:17:35
  TRACK 18 AUDIO
    TITLE "6:cjc124_1991"
    INDEX 01 00:17:55
  TRACK 19 AUDIO
    TITLE "0:"
    INDEX 01 00:19:40
  TRACK 20 AUDIO
    TITLE "5:cjc124_1992"
    INDEX 01 00:20:04
  TRACK 21 AUDIO
    TITLE "0:"
    INDEX 01 00:21:49
  TRACK 22 AUDIO
    TITLE "6:cjc124_1993"
    INDEX 01 00:22:07
  TRACK 23 AUDIO
    TITLE "0:"
    INDEX 01 00:23:46
  TRACK 24 AUDIO
    TITLE "5:cjc124_1994"
    INDEX 01 00:24:12
  TRACK 25 AUDIO
    TITLE "0:"
    INDEX 01 00:25:66
  TRACK 26 AUDIO
    TITLE "6:cjc124_1995"
    INDEX 01 00:26:11
  TRACK 27 AUDIO
    TITLE "0:"
    INDEX 01 00:27:43
  TRACK 28 AUDIO
    TITLE "5:cjc124_1996"
    INDEX 01 00:28:13
  TRACK 29 AUDIO
    TITLE "0:"
    INDEX 01 00:29:48
  TRACK 30 AUDIO
    TITLE "6:cjc124_1997"
    INDEX 01 00:29:68
  TRACK 31 AUDIO
    TITLE "0:"
    INDEX 01 00:31:57
  TRACK 32 AUDIO
    TITLE "5:cjc124_1998"
    INDEX 01 00:32:21
  TRACK 33 AUDIO
    TITLE "0:"
    INDEX 01 00:34:30
  TRACK 34 AUDIO
    TITLE "6:cjc124_1999"
    INDEX 01 00:34:51
  TRACK 35 AUDIO
    TITLE "0:"
    INDEX 01 00:36:07
  TRACK 36 AUDIO
    TITLE "5:cjc124_2000"
    INDEX 01 00:36:46
  TRACK 37 AUDIO
    TITLE "0:"
    INDEX 01 00:38:49
  TRACK 38 AUDIO
    TITLE "6:cjc124_2001"
    INDEX 01 00:38:69
  TRACK 39 AUDIO
    TITLE "0:"
    INDEX 01 00:40:38
  TRACK 40 AUDIO
    TITLE "5:cjc124_2002"
    INDEX 01 00:41:04
  TRACK 41 AUDIO
    TITLE "0:"
    INDEX 01 00:43:15
  TRACK 42 AUDIO
    TITLE "6:cjc124_2003"
    INDEX 01 00:43:35
  TRACK 43 AUDIO
    TITLE "0:"
    INDEX 01 00:45:10
  TRACK 44 AUDIO
    TITLE "5:cjc124_2004"
    INDEX 01 00:45:49
  TRACK 45 AUDIO
    TITLE "0:"
    INDEX 01 00:47:28
  TRACK 46 AUDIO
    TITLE "6:cjc124_2005"
    INDEX 01 00:47:48
  TRACK 47 AUDIO
    TITLE "0:"
    INDEX 01 00:49:31
  TRACK 48 AUDIO
    TITLE "5:cjc124_2006"
    INDEX 01 00:49:63
  TRACK 49 AUDIO
    TITLE "0:"
    INDEX 01 00:51:58
  TRACK 50 AUDIO
    TITLE "6:cjc124_2007"
    INDEX 01 00:52:00
  TRACK 51 AUDIO
    TITLE "0:"
    INDEX 01 00:53:68
  TRACK 52 AUDIO
    TITLE "5:cjc124_2008"
    INDEX 01 00:54:30
  TRACK 53 AUDIO
    TITLE "0:"
    INDEX 01 00:56:27
  TRACK 54 AUDIO
    TITLE "6:cjc124_2009"
    INDEX 01 00:56:43
  TRACK 55 AUDIO
    TITLE "0:"
    INDEX 01 00:58:01
  TRACK 56 AUDIO
    TITLE "5:cjc124_2010"
    INDEX 01 00:58:40
  TRACK 57 AUDIO
    TITLE "0:"
    INDEX 01 01:00:29
  TRACK 58 AUDIO
    TITLE "6:cjc124_2011"
    INDEX 01 01:00:47
  TRACK 59 AUDIO
    TITLE "0:"
    INDEX 01 01:02:67
  TRACK 60 AUDIO
    TITLE "5:cjc124_2012"
    INDEX 01 01:03:29
  TRACK 61 AUDIO
    TITLE "0:"
    INDEX 01 01:05:13
  TRACK 62 AUDIO
    TITLE "6:cjc124_2013"
    INDEX 01 01:05:32
  TRACK 63 AUDIO
    TITLE "0:"
    INDEX 01 01:06:73
  TRACK 64 AUDIO
    TITLE "5:cjc124_2014"
    INDEX 01 01:07:37
  TRACK 65 AUDIO
    TITLE "0:"
    INDEX 01 01:10:02
  TRACK 66 AUDIO
    TITLE "6:cjc124_2015"
    INDEX 01 01:10:22
  TRACK 67 AUDIO
    TITLE "0:"
    INDEX 01 01:12:36
